<?xml version="1.0" standalone="no"?>
<!DOCTYPE svg PUBLIC "-//W3C//DTD SVG 20010904//EN"
 "http://www.w3.org/TR/2001/REC-SVG-20010904/DTD/svg10.dtd">
<svg version="1.0" xmlns="http://www.w3.org/2000/svg"
 width="1200.000000pt" height="1200.000000pt" viewBox="0 0 1200.000000 1200.000000"
 preserveAspectRatio="xMidYMid meet">
<metadata>
Created by potrace 1.14, written by Peter Selinger 2001-2017
</metadata>
<g transform="translate(0.000000,1200.000000) scale(0.100000,-0.100000)"
fill="#000000" stroke="none">
<path d="M0 6000 l0 -6000 6000 0 6000 0 0 6000 0 6000 -6000 0 -6000 0 0
-6000z m8552 3585 c108 -22 185 -65 259 -142 73 -75 103 -126 130 -223 18 -63
19 -153 19 -2520 -1 -2013 -3 -2468 -14 -2530 -30 -164 -114 -321 -248 -458
-199 -205 -455 -323 -797 -369 -108 -14 -145 -15 -267 -5 -264 22 -435 72
-627 183 -338 197 -526 509 -504 837 8 112 28 186 78 291 191 403 680 654
1222 628 113 -6 264 -29 336 -52 l21 -6 0 1381 0 1381 -21 -12 c-20 -10 -173
-75 -453 -190 -65 -27 -133 -56 -150 -63 -17 -8 -87 -38 -156 -67 -69 -28
-154 -64 -190 -79 -36 -16 -218 -92 -405 -170 -187 -79 -398 -167 -470 -197
-127 -53 -288 -121 -450 -188 -44 -18 -143 -60 -220 -93 l-140 -59 -5 -1814
c-4 -1450 -8 -1822 -18 -1854 -7 -22 -24 -70 -38 -106 -168 -450 -758 -746
-1346 -676 -676 81 -1137 565 -1044 1096 31 178 113 330 250 467 200 198 436
310 761 360 175 27 461 8 614 -41 l21 -6 0 1768 c0 1945 -3 1841 62 1973 36
73 127 171 199 213 25 15 223 97 440 183 217 85 556 220 754 299 198 78 511
202 695 275 184 73 542 215 795 316 617 244 635 251 686 263 100 24 136 25
221 6z"/>
</g>
</svg>
